# xmcd
#
# Track frame offsets:
#	150
#	29249
#	69367
#	81513
#	101880
#	138311
#	165016
#	180517
#	218775
#	249432
#	282573
#	308661
#
# Disc length: 4716 seconds
#
# Revision: 1
# Processed by: cddbd v1.5.2PL0 Copyright (c) Steve Scherf et al.
# Submitted via: audiograbber 1.83.01
#
DISCID=a8126a0c
DTITLE=Grateful Dead - 79-11-24 Golden Hall, San Diego CA
DYEAR=1900
DGENRE=
TTITLE0=China Cat Sunflower
TTITLE1=I Know You Rider
TTITLE2=Mama Tried
TTITLE3=Mexicali Blues
TTITLE4=Peggy-O
TTITLE5=Cassidy
TTITLE6=Easy To Love You
TTITLE7=Althea
TTITLE8=Passenger
TTITLE9=Alabama Getaway
TTITLE10=Greatest Story Ever Told
TTITLE11=Ship Of Fools
EXTD=
EXTT0=
EXTT1=
EXTT2=
EXTT3=
EXTT4=
EXTT5=
EXTT6=
EXTT7=
EXTT8=
EXTT9=
EXTT10=
EXTT11=
PLAYORDER=
